<svg version="1.1" xmlns="http://www.w3.org/2000/svg" xmlns:xlink="http://www.w3.org/1999/xlink" width="504.70604" height="423.3964" viewBox="0,0,504.70604,423.3964"><g transform="translate(11.25,20.43694)"><g data-paper-data="{&quot;isPaintingLayer&quot;:true}" fill-rule="nonzero" stroke="none" stroke-linecap="butt" stroke-linejoin="miter" stroke-miterlimit="10" stroke-dasharray="" stroke-dashoffset="0" style="mix-blend-mode: normal"><path d="M4.61653,362.41892v-358.85886h481.98198v358.85886z" fill="#30008f" stroke-width="0"/><path d="M-11.25,394.5v-46h78.23123v46z" fill="#000000" stroke-width="0"/><path d="M65.98123,400v-44h419.76877v44z" fill="#ff0000" stroke-width="0"/><path d="M-8.48099,355.50751v-346h15.87253v346z" fill="#000000" stroke-width="0"/><path d="M-6.54396,8v-21h500v21z" fill="#000000" stroke-width="0"/><path d="M0.61503,261.81832c0,-1.38071 1.11929,-2.5 2.5,-2.5c1.38071,0 2.5,1.11929 2.5,2.5c0,1.38071 -1.11929,2.5 -2.5,2.5c-1.38071,0 -2.5,-1.11929 -2.5,-2.5z" fill="#000000" stroke-width="0.5"/><path d="M133.74566,402.95946v-136.63664h16.51652v136.63664z" fill="#000000" stroke-width="0"/><path d="M111.22314,186.77027v-207.20721h19.51952v207.20721z" fill="#000000" stroke-width="0"/><path d="M253.86578,396.95345v-90.09009h67.56757v90.09009z" fill="#000000" stroke-width="0"/><path d="M234.34626,215.27177v-210.21021h243.24324v210.21021z" fill="#000000" stroke-width="0"/><path d="M413.02494,327.88438v-13.51351h7.50751v13.51351z" fill="#000000" stroke-width="0"/></g></g></svg>