<svg version="1.1" xmlns="http://www.w3.org/2000/svg" xmlns:xlink="http://www.w3.org/1999/xlink" width="504.70604" height="413" viewBox="0,0,504.70604,413"><g transform="translate(11.25,13)"><g data-paper-data="{&quot;isPaintingLayer&quot;:true}" fill-rule="nonzero" stroke="none" stroke-linecap="butt" stroke-linejoin="miter" stroke-miterlimit="10" stroke-dasharray="" stroke-dashoffset="0" style="mix-blend-mode: normal"><path d="M4.61653,356.41291v-349.84985h483.48348v349.84985z" fill="#30008f" stroke-width="0"/><path d="M-11.25,394.5v-46h78.23123v46z" fill="#000000" stroke-width="0"/><path d="M65.98123,400v-44h419.76877v44z" fill="#ff0000" stroke-width="0"/><path d="M-8.48099,355.50751v-346h15.87253v346z" fill="#000000" stroke-width="0"/><path d="M-6.54396,8v-21h500v21z" fill="#000000" stroke-width="0"/><path d="M0.61503,261.81832c0,-1.38071 1.11929,-2.5 2.5,-2.5c1.38071,0 2.5,1.11929 2.5,2.5c0,1.38071 -1.11929,2.5 -2.5,2.5c-1.38071,0 -2.5,-1.11929 -2.5,-2.5z" fill="#000000" stroke-width="0.5"/><path d="M243.35527,219.02553c0,59.29183 -12.43653,107.35736 -27.77778,107.35736c-15.34124,0 -27.77778,-48.06553 -27.77778,-107.35736c0,-59.29183 12.43653,-107.35736 27.77778,-107.35736c15.34124,0 27.77778,48.06553 27.77778,107.35736z" fill="#000000" stroke-width="0"/><path d="M108.22014,193.5c0,8.70719 -6.72245,15.76577 -15.01502,15.76577c-8.29256,0 -15.01502,-7.05857 -15.01502,-15.76577c0,-8.70719 6.72245,-15.76577 15.01502,-15.76577c8.29256,0 15.01502,7.05857 15.01502,15.76577z" fill="#000000" stroke-width="0"/><path d="M367.9799,237.79429c0,12.43885 -8.73919,22.52252 -19.51952,22.52252c-10.78033,0 -19.51952,-10.08368 -19.51952,-22.52252c0,-12.43885 8.73919,-22.52252 19.51952,-22.52252c10.78033,0 19.51952,10.08368 19.51952,22.52252z" fill="#000000" stroke-width="0"/><path d="M407.01894,105.66216c0,9.95108 -8.73919,18.01802 -19.51952,18.01802c-10.78033,0 -19.51952,-8.06694 -19.51952,-18.01802c0,-9.95108 8.73919,-18.01802 19.51952,-18.01802c10.78033,0 19.51952,8.06694 19.51952,18.01802z" fill="#000000" stroke-width="0"/><path d="M318.43035,32.83934c0,14.51199 -43.69593,26.27628 -97.5976,26.27628c-53.90166,0 -97.5976,-11.76429 -97.5976,-26.27628c0,-14.51199 43.69593,-26.27628 97.5976,-26.27628c53.90166,0 97.5976,11.76429 97.5976,26.27628z" fill="#000000" stroke-width="0"/><path d="M393.50542,362.41892c0,19.0729 -15.46164,34.53453 -34.53453,34.53453c-19.0729,0 -34.53453,-15.46164 -34.53453,-34.53453c0,-19.0729 15.46164,-34.53453 34.53453,-34.53453c19.0729,0 34.53453,15.46164 34.53453,34.53453z" fill="#000000" stroke-width="0"/><path d="M488.10002,249.80631c0,13.2681 -11.09204,24.02402 -24.77477,24.02402c-13.68273,0 -24.77477,-10.75592 -24.77477,-24.02402c0,-13.2681 11.09204,-24.02402 24.77477,-24.02402c13.68273,0 24.77477,10.75592 24.77477,24.02402z" fill="#000000" stroke-width="0"/><path d="M476.088,65.87237c0,12.85347 -14.11715,23.27327 -31.53153,23.27327c-17.41438,0 -31.53153,-10.4198 -31.53153,-23.27327c0,-12.85347 14.11715,-23.27327 31.53153,-23.27327c17.41438,0 31.53153,10.4198 31.53153,23.27327z" fill="#000000" stroke-width="0"/></g></g></svg>