<svg version="1.1" xmlns="http://www.w3.org/2000/svg" xmlns:xlink="http://www.w3.org/1999/xlink" width="504.70604" height="407.5" viewBox="0,0,504.70604,407.5"><g transform="translate(11.25,13)"><g data-paper-data="{&quot;isPaintingLayer&quot;:true}" fill-rule="nonzero" stroke-linecap="butt" stroke-linejoin="miter" stroke-miterlimit="10" stroke-dasharray="" stroke-dashoffset="0" style="mix-blend-mode: normal"><path d="M-2.89097,348.90541v-348.34835h475.97598v348.34835z" fill="#30008f" stroke="none" stroke-width="0"/><path d="M-11.25,394.5v-46h497.15015v46z" fill="#000000" stroke="none" stroke-width="0"/><path d="M-8.48099,355.50751v-346h15.87253v346z" fill="#000000" stroke="none" stroke-width="0"/><path d="M-6.54396,8v-21h500v21z" fill="#000000" stroke="none" stroke-width="0"/><path d="M0.61503,261.81832c0,-1.38071 1.11929,-2.5 2.5,-2.5c1.38071,0 2.5,1.11929 2.5,2.5c0,1.38071 -1.11929,2.5 -2.5,2.5c-1.38071,0 -2.5,-1.11929 -2.5,-2.5z" fill="#000000" stroke="none" stroke-width="0.5"/><path d="M472.49499,349.997v-346h15.87253v346z" fill="#000000" stroke="none" stroke-width="0"/><path d="M123.23515,242.5518v-15.01502h271.77177v15.01502z" fill="#000000" stroke="#000000" stroke-width="5"/></g></g></svg>