<svg version="1.1" xmlns="http://www.w3.org/2000/svg" xmlns:xlink="http://www.w3.org/1999/xlink" width="505.35602" height="418.96246" viewBox="0,0,505.35602,418.96246"><g transform="translate(11.89998,13)"><g data-paper-data="{&quot;isPaintingLayer&quot;:true}" fill-rule="nonzero" stroke="none" stroke-linecap="butt" stroke-linejoin="miter" stroke-miterlimit="10" stroke-dasharray="" stroke-dashoffset="0" style="mix-blend-mode: normal"><path d="M-11.89998,353.40991v-364.86486h492.49249v364.86486z" fill="#30008f" stroke-width="0"/><path d="M-11.25,394.5v-46h78.23123v46z" fill="#000000" stroke-width="0"/><path d="M65.98123,400v-44h419.76877v44z" fill="#ff0000" stroke-width="0"/><path d="M-8.48099,355.50751v-346h15.87253v346z" fill="#000000" stroke-width="0"/><path d="M-6.54396,8v-21h500v21z" fill="#000000" stroke-width="0"/><path d="M0.61503,261.81832c0,-1.38071 1.11929,-2.5 2.5,-2.5c1.38071,0 2.5,1.11929 2.5,2.5c0,1.38071 -1.11929,2.5 -2.5,2.5c-1.38071,0 -2.5,-1.11929 -2.5,-2.5z" fill="#000000" stroke-width="0.5"/><path d="M-6.39548,180.75225v-184.68468h97.5976v184.68468z" fill="#000000" stroke-width="0"/><path d="M120.23215,399.95646v-163.66366h67.56757v163.66366z" fill="#000000" stroke-width="0"/><path d="M219.33125,128.18468v-124.62462h54.05405v124.62462z" fill="#000000" stroke-width="0"/><path d="M369.4814,405.96246v-148.64865h51.05105v148.64865z" fill="#000000" stroke-width="0"/><path d="M274.8868,257.31381v-31.53153h27.02703v31.53153z" fill="#000000" stroke-width="0"/><path d="M422.03395,150.70721v-31.53153h22.52252v31.53153z" fill="#000000" stroke-width="0"/><path d="M336.44837,359.41592v-66.06607h34.53453v66.06607z" fill="#ff0000" stroke-width="0"/><path d="M419.03095,122.17868v-33.03303h25.52553v33.03303z" fill="#ff0000" stroke-width="0"/><path d="M384.49641,143.1997v-16.51652h43.54354v16.51652z" fill="#ff0000" stroke-width="0"/></g></g></svg>