<svg version="1.1" xmlns="http://www.w3.org/2000/svg" xmlns:xlink="http://www.w3.org/1999/xlink" width="504.70604" height="413" viewBox="0,0,504.70604,413"><g transform="translate(11.25,13)"><g data-paper-data="{&quot;isPaintingLayer&quot;:true}" fill-rule="nonzero" stroke="none" stroke-linecap="butt" stroke-linejoin="miter" stroke-miterlimit="10" stroke-dasharray="" stroke-dashoffset="0" style="mix-blend-mode: normal"><path d="M-7.39548,357.91441v-366.36637h492.49249v366.36637z" fill="#30008f" stroke-width="0"/><path d="M-11.25,394.5v-46h78.23123v46z" fill="#000000" stroke-width="0"/><path d="M65.98123,400v-44h419.76877v44z" fill="#ff0000" stroke-width="0"/><path d="M-8.48099,355.50751v-346h15.87253v346z" fill="#000000" stroke-width="0"/><path d="M-6.54396,8v-21h500v21z" fill="#000000" stroke-width="0"/><path d="M0.61503,261.81832c0,-1.38071 1.11929,-2.5 2.5,-2.5c1.38071,0 2.5,1.11929 2.5,2.5c0,1.38071 -1.11929,2.5 -2.5,2.5c-1.38071,0 -2.5,-1.11929 -2.5,-2.5z" fill="#000000" stroke-width="0.5"/><path d="M49.66158,242.2988v-232.73273h60.06006v232.73273z" fill="#000000" stroke-width="0"/><path d="M180.29221,363.92042v-67.56757h66.06607v67.56757z" fill="#000000" stroke-width="0"/><path d="M223.83575,198.75526v-195.1952h60.06006v195.1952z" fill="#000000" stroke-width="0"/><path d="M351.46338,398.45495v-169.66967h79.57958v169.66967z" fill="#000000" stroke-width="0"/><path d="M357.46939,110.16667v-109.60961h121.62162v109.60961z" fill="#000000" stroke-width="0"/></g></g></svg>