<svg version="1.1" xmlns="http://www.w3.org/2000/svg" xmlns:xlink="http://www.w3.org/1999/xlink" width="509.86053" height="420.46396" viewBox="0,0,509.86053,420.46396"><g transform="translate(16.40449,20.46396)"><g data-paper-data="{&quot;isPaintingLayer&quot;:true}" fill-rule="nonzero" stroke="none" stroke-linecap="butt" stroke-linejoin="miter" stroke-miterlimit="10" stroke-dasharray="" stroke-dashoffset="0" style="mix-blend-mode: normal"><path d="M-16.40449,356.41291v-376.87688h498.4985v376.87688z" fill="#30008f" stroke-width="0"/><path d="M-11.25,394.5v-46h78.23123v46z" fill="#000000" stroke-width="0"/><path d="M65.98123,400v-44h419.76877v44z" fill="#ff0000" stroke-width="0"/><path d="M-8.48099,355.50751v-346h15.87253v346z" fill="#000000" stroke-width="0"/><path d="M-6.54396,8v-21h500v21z" fill="#000000" stroke-width="0"/><path d="M0.61503,261.81832c0,-1.38071 1.11929,-2.5 2.5,-2.5c1.38071,0 2.5,1.11929 2.5,2.5c0,1.38071 -1.11929,2.5 -2.5,2.5c-1.38071,0 -2.5,-1.11929 -2.5,-2.5z" fill="#000000" stroke-width="0.5"/><path d="M82.69461,225.78228v-220.72072h40.54054v220.72072z" fill="#000000" stroke-width="0"/><path d="M189.30122,398.45495v-133.63363h46.54655v133.63363z" fill="#000000" stroke-width="0"/><path d="M178.79071,183.74024v-184.68468h84.08408v184.68468z" fill="#000000" stroke-width="0"/><path d="M339.45137,395.45195v-127.62763h18.01802v127.62763z" fill="#000000" stroke-width="0"/><path d="M343.95587,147.7042v-136.63664h135.13514v136.63664z" fill="#000000" stroke-width="0"/></g></g></svg>