<svg version="1.1" xmlns="http://www.w3.org/2000/svg" xmlns:xlink="http://www.w3.org/1999/xlink" width="506.85752" height="418.91892" viewBox="0,0,506.85752,418.91892"><g transform="translate(13.40148,17.46096)"><g data-paper-data="{&quot;isPaintingLayer&quot;:true}" fill-rule="nonzero" stroke="none" stroke-linecap="butt" stroke-linejoin="miter" stroke-miterlimit="10" stroke-dasharray="" stroke-dashoffset="0" style="mix-blend-mode: normal"><path d="M-13.40148,360.91742v-378.37838h498.4985v378.37838z" fill="#30008f" stroke-width="0"/><path d="M-11.25,394.5v-46h78.23123v46z" fill="#000000" stroke-width="0"/><path d="M65.98123,400v-44h419.76877v44z" fill="#ff0000" stroke-width="0"/><path d="M-8.48099,355.50751v-346h15.87253v346z" fill="#000000" stroke-width="0"/><path d="M-6.54396,8v-21h500v21z" fill="#000000" stroke-width="0"/><path d="M0.61503,261.81832c0,-1.38071 1.11929,-2.5 2.5,-2.5c1.38071,0 2.5,1.11929 2.5,2.5c0,1.38071 -1.11929,2.5 -2.5,2.5c-1.38071,0 -2.5,-1.11929 -2.5,-2.5z" fill="#000000" stroke-width="0.5"/><path d="M115.72765,401.45796v-259.75976h27.02703v259.75976z" fill="#000000" stroke-width="0"/><path d="M100.71263,374.43093v-190.69069h18.01802v190.69069z" fill="#ff0000" stroke-width="0"/><path d="M225.33725,174.73123v-37.53754h253.75375v37.53754z" fill="#000000" stroke-width="0"/><path d="M276.38831,138.6952v-33.03303h19.51952v33.03303z" fill="#ff0000" stroke-width="0"/><path d="M420.53245,138.6952v-36.03604h12.01201v36.03604z" fill="#ff0000" stroke-width="0"/></g></g></svg>