<svg version="1.1" xmlns="http://www.w3.org/2000/svg" xmlns:xlink="http://www.w3.org/1999/xlink" width="506.85752" height="418.96246" viewBox="0,0,506.85752,418.96246"><g transform="translate(13.40148,18.96246)"><g data-paper-data="{&quot;isPaintingLayer&quot;:true}" fill-rule="nonzero" stroke="none" stroke-linecap="butt" stroke-linejoin="miter" stroke-miterlimit="10" stroke-dasharray="" stroke-dashoffset="0" style="mix-blend-mode: normal"><path d="M-13.40148,353.40991v-372.37237h495.4955v372.37237z" fill="#30008f" stroke-width="0"/><path d="M-11.25,394.5v-46h78.23123v46z" fill="#000000" stroke-width="0"/><path d="M65.98123,400v-44h419.76877v44z" fill="#ff0000" stroke-width="0"/><path d="M-8.48099,355.50751v-346h15.87253v346z" fill="#000000" stroke-width="0"/><path d="M-6.54396,8v-21h500v21z" fill="#000000" stroke-width="0"/><path d="M0.61503,261.81832c0,-1.38071 1.11929,-2.5 2.5,-2.5c1.38071,0 2.5,1.11929 2.5,2.5c0,1.38071 -1.11929,2.5 -2.5,2.5c-1.38071,0 -2.5,-1.11929 -2.5,-2.5z" fill="#000000" stroke-width="0.5"/><path d="M73.22314,138.6952v-66.06607h122.08408v66.06607z" fill="#000000" stroke-width="0"/><path d="M262.87479,222.77928v-54.05405h81.08108v54.05405z" fill="#000000" stroke-width="0"/><path d="M401.01293,324.88138v-85.58559h81.08108v85.58559z" fill="#000000" stroke-width="0"/></g></g></svg>