<svg version="1.1" xmlns="http://www.w3.org/2000/svg" xmlns:xlink="http://www.w3.org/1999/xlink" width="504.70604" height="423.67643" viewBox="0,0,504.70604,423.67643"><g transform="translate(11.25,23.46697)"><g data-paper-data="{&quot;isPaintingLayer&quot;:true}" fill-rule="nonzero" stroke="none" stroke-linecap="butt" stroke-linejoin="miter" stroke-miterlimit="10" stroke-dasharray="" stroke-dashoffset="0" style="mix-blend-mode: normal"><path d="M-7.39548,360.91742v-384.38438h492.49249v384.38438z" fill="#30008f" stroke-width="0"/><path d="M-11.25,394.5v-46h78.23123v46z" fill="#000000" stroke-width="0"/><path d="M65.98123,400v-44h419.76877v44z" fill="#ff0000" stroke-width="0"/><path d="M-8.48099,355.50751v-346h15.87253v346z" fill="#000000" stroke-width="0"/><path d="M-6.54396,8v-21h500v21z" fill="#000000" stroke-width="0"/><path d="M0.61503,261.81832c0,-1.38071 1.11929,-2.5 2.5,-2.5c1.38071,0 2.5,1.11929 2.5,2.5c0,1.38071 -1.11929,2.5 -2.5,2.5c-1.38071,0 -2.5,-1.11929 -2.5,-2.5z" fill="#000000" stroke-width="0.5"/><path d="M392.00392,400.20946v-310.81081h93.09309v310.81081z" fill="#000000" stroke-width="0"/><path d="M373.9859,389.69895v-303.3033h19.51952v303.3033z" fill="#ff0000" stroke-width="0"/></g></g></svg>