<svg version="1.1" xmlns="http://www.w3.org/2000/svg" xmlns:xlink="http://www.w3.org/1999/xlink" width="505.35602" height="422.47147" viewBox="0,0,505.35602,422.47147"><g transform="translate(11.89998,27.97147)"><g data-paper-data="{&quot;isPaintingLayer&quot;:true}" fill-rule="nonzero" stroke="none" stroke-linecap="butt" stroke-linejoin="miter" stroke-miterlimit="10" stroke-dasharray="" stroke-dashoffset="0" style="mix-blend-mode: normal"><path d="M-11.89998,363.92042v-391.89189h493.99399v391.89189z" fill="#30008f" stroke-width="0"/><path d="M-11.25,394.5v-46h78.23123v46z" fill="#000000" stroke-width="0"/><path d="M65.98123,389.48949v-44h419.76877v44z" fill="#ff0000" stroke-width="0"/><path d="M-8.48099,355.50751v-346h15.87253v346z" fill="#000000" stroke-width="0"/><path d="M-6.54396,8v-21h500v21z" fill="#000000" stroke-width="0"/><path d="M0.61503,261.81832c0,-1.38071 1.11929,-2.5 2.5,-2.5c1.38071,0 2.5,1.11929 2.5,2.5c0,1.38071 -1.11929,2.5 -2.5,2.5c-1.38071,0 -2.5,-1.11929 -2.5,-2.5z" fill="#000000" stroke-width="0.5"/><path d="M142.75467,248.3048c0,2.48777 -1.68061,4.5045 -3.75375,4.5045c-2.07314,0 -3.75375,-2.01674 -3.75375,-4.5045c0,-2.48777 1.68061,-4.5045 3.75375,-4.5045c2.07314,0 3.75375,2.01674 3.75375,4.5045z" fill="#000000" stroke-width="0"/><path d="M171.2832,152.20871c0,3.31703 -1.34449,6.00601 -3.003,6.00601c-1.65851,0 -3.003,-2.68898 -3.003,-6.00601c0,-3.31703 1.34449,-6.00601 3.003,-6.00601c1.65851,0 3.003,2.68898 3.003,6.00601z" fill="#000000" stroke-width="0"/><path d="M183.29521,258.81532c0,0.82926 -1.68061,1.5015 -3.75375,1.5015c-2.07314,0 -3.75375,-0.67225 -3.75375,-1.5015c0,-0.82926 1.68061,-1.5015 3.75375,-1.5015c2.07314,0 3.75375,0.67225 3.75375,1.5015z" fill="#000000" stroke-width="0"/><path d="M271.8838,273.83033c0,3.31703 -2.35286,6.00601 -5.25526,6.00601c-2.9024,0 -5.25526,-2.68898 -5.25526,-6.00601c0,-3.31703 2.35286,-6.00601 5.25526,-6.00601c2.9024,0 5.25526,2.68898 5.25526,6.00601z" fill="#000000" stroke-width="0"/><path d="M327.43936,237.79429c0,4.14628 -5.71408,7.50751 -12.76276,7.50751c-7.04868,0 -12.76276,-3.36123 -12.76276,-7.50751c0,-4.14628 5.71408,-7.50751 12.76276,-7.50751c7.04868,0 12.76276,3.36123 12.76276,7.50751z" fill="#000000" stroke-width="0"/><path d="M292.90482,119.92643c0,0.41463 -3.0251,0.75075 -6.75676,0.75075c-3.73165,0 -6.75676,-0.33612 -6.75676,-0.75075c0,-0.41463 3.0251,-0.75075 6.75676,-0.75075c3.73165,0 6.75676,0.33612 6.75676,0.75075z" fill="#000000" stroke-width="0"/></g></g></svg>