<svg version="1.1" xmlns="http://www.w3.org/2000/svg" xmlns:xlink="http://www.w3.org/1999/xlink" width="504.70604" height="413" viewBox="0,0,504.70604,413"><g transform="translate(11.25,13)"><g data-paper-data="{&quot;isPaintingLayer&quot;:true}" fill-rule="nonzero" stroke="none" stroke-linecap="butt" stroke-linejoin="miter" stroke-miterlimit="10" stroke-dasharray="" stroke-dashoffset="0" style="mix-blend-mode: normal"><path d="M9.12104,356.41291v-346.84685h474.47447v346.84685z" fill="#30008f" stroke-width="0"/><path d="M-11.25,394.5v-46h78.23123v46z" fill="#000000" stroke-width="0"/><path d="M65.98123,400v-44h419.76877v44z" fill="#ff0000" stroke-width="0"/><path d="M-8.48099,355.50751v-346h15.87253v346z" fill="#000000" stroke-width="0"/><path d="M-6.54396,8v-21h500v21z" fill="#000000" stroke-width="0"/><path d="M0.61503,261.81832c0,-1.38071 1.11929,-2.5 2.5,-2.5c1.38071,0 2.5,1.11929 2.5,2.5c0,1.38071 -1.11929,2.5 -2.5,2.5c-1.38071,0 -2.5,-1.11929 -2.5,-2.5z" fill="#000000" stroke-width="0.5"/><path d="M178.79071,114.67117c0,29.02397 -7.05857,52.55255 -15.76577,52.55255c-8.70719,0 -15.76577,-23.52858 -15.76577,-52.55255c0,-29.02397 7.05857,-52.55255 15.76577,-52.55255c8.70719,0 15.76577,23.52858 15.76577,52.55255z" fill="#000000" stroke-width="0"/><path d="M342.45437,119.92643c0,28.60935 -8.83522,51.8018 -19.73402,51.8018c-10.8988,0 -19.73402,-23.19246 -19.73402,-51.8018c0,-28.60935 8.83522,-51.8018 19.73402,-51.8018c10.8988,0 19.73402,23.19246 19.73402,51.8018z" fill="#000000" stroke-width="0"/><path d="M298.91083,277.58408c0,30.26786 -24.20082,54.8048 -54.05405,54.8048c-29.85323,0 -54.05405,-24.53695 -54.05405,-54.8048c0,-30.26786 24.20082,-54.8048 54.05405,-54.8048c29.85323,0 54.05405,24.53695 54.05405,54.8048z" fill="#000000" stroke-width="0"/></g></g></svg>