<svg version="1.1" xmlns="http://www.w3.org/2000/svg" xmlns:xlink="http://www.w3.org/1999/xlink" width="511.36203" height="414.45796" viewBox="0,0,511.36203,414.45796"><g transform="translate(17.90599,14.45796)"><g data-paper-data="{&quot;isPaintingLayer&quot;:true}" fill-rule="nonzero" stroke="none" stroke-linecap="butt" stroke-linejoin="miter" stroke-miterlimit="10" stroke-dasharray="" stroke-dashoffset="0" style="mix-blend-mode: normal"><path d="M-17.90599,357.91441v-372.37237h501.5015v372.37237z" fill="#30008f" stroke-width="0"/><path d="M-11.25,394.5v-46h78.23123v46z" fill="#000000" stroke-width="0"/><path d="M65.98123,400v-44h419.76877v44z" fill="#ff0000" stroke-width="0"/><path d="M-8.48099,355.50751v-346h15.87253v346z" fill="#000000" stroke-width="0"/><path d="M-6.54396,8v-21h500v21z" fill="#000000" stroke-width="0"/><path d="M0.61503,261.81832c0,-1.38071 1.11929,-2.5 2.5,-2.5c1.38071,0 2.5,1.11929 2.5,2.5c0,1.38071 -1.11929,2.5 -2.5,2.5c-1.38071,0 -2.5,-1.11929 -2.5,-2.5z" fill="#000000" stroke-width="0.5"/><path d="M148.76068,294.85135v-81.08108h1.5015v81.08108z" fill="#000000" stroke-width="0"/><path d="M213.32524,311.36787v-115.61562h4.5045v115.61562z" fill="#000000" stroke-width="0"/><path d="M337.3868,344.4009v-168.16817h4.12913v168.16817z" fill="#000000" stroke-width="0"/><path d="M419.03095,342.8994v-156.15616h12.01201v156.15616z" fill="#000000" stroke-width="0"/><path d="M93.20512,83.13964v-10.51051h99.0991v10.51051z" fill="#000000" stroke-width="0"/><path d="M307.91984,63.62012v-19.51952h48.04805v19.51952z" fill="#ff0000" stroke-width="0"/><path d="M33.14506,113.16967v-12.01201h10.51051v12.01201z" fill="#ff0000" stroke-width="0"/><path d="M115.72764,126.68318v-13.51351h13.51351v13.51351z" fill="#ff0000" stroke-width="0"/><path d="M195.30722,101.15766v-1.5015h55.55556v1.5015z" fill="#ff0000" stroke-width="0"/><path d="M297.40933,96.65315v-91.59159h190.69069v91.59159z" fill="#ff0000" stroke-width="0"/></g></g></svg>