<svg version="1.1" xmlns="http://www.w3.org/2000/svg" xmlns:xlink="http://www.w3.org/1999/xlink" width="517.36804" height="423.46697" viewBox="0,0,517.36804,423.46697"><g transform="translate(23.912,23.46697)"><g data-paper-data="{&quot;isPaintingLayer&quot;:true}" fill-rule="nonzero" stroke="none" stroke-linecap="butt" stroke-linejoin="miter" stroke-miterlimit="10" stroke-dasharray="" stroke-dashoffset="0" style="mix-blend-mode: normal"><path d="M-23.912,360.91742v-384.38438h513.51351v384.38438z" fill="#30008f" stroke-width="0"/><path d="M-11.25,394.5v-46h78.23123v46z" fill="#000000" stroke-width="0"/><path d="M65.98123,400v-44h419.76877v44z" fill="#ff0000" stroke-width="0"/><path d="M-8.48099,355.50751v-346h15.87253v346z" fill="#000000" stroke-width="0"/><path d="M-6.54396,8v-21h500v21z" fill="#000000" stroke-width="0"/><path d="M0.61503,261.81832c0,-1.38071 1.11929,-2.5 2.5,-2.5c1.38071,0 2.5,1.11929 2.5,2.5c0,1.38071 -1.11929,2.5 -2.5,2.5c-1.38071,0 -2.5,-1.11929 -2.5,-2.5z" fill="#000000" stroke-width="0.5"/><path d="M96.71864,359.91141v-88.58859h9.00901v88.58859z" fill="#000000" stroke-width="0"/><path d="M150.26218,260.31682v-270.27027h18.01802v270.27027z" fill="#000000" stroke-width="0"/><path d="M147.25918,363.92042v-30.03003h112.61261v30.03003z" fill="#000000" stroke-width="0"/><path d="M286.89882,356.41291v-154.65465h63.06306v154.65465z" fill="#000000" stroke-width="0"/><path d="M410.02194,147.7042v-141.14114h70.57057v141.14114z" fill="#000000" stroke-width="0"/><path d="M425.03695,384.94144v-64.56456h51.05105v64.56456z" fill="#000000" stroke-width="0"/></g></g></svg>