<svg version="1.1" xmlns="http://www.w3.org/2000/svg" xmlns:xlink="http://www.w3.org/1999/xlink" width="532.38305" height="417.96696" viewBox="0,0,532.38305,417.96696"><g transform="translate(11.25,23.46696)"><g data-paper-data="{&quot;isPaintingLayer&quot;:true}" fill-rule="nonzero" stroke="none" stroke-linecap="butt" stroke-linejoin="miter" stroke-miterlimit="10" stroke-dasharray="" stroke-dashoffset="0" style="mix-blend-mode: normal"><path d="M-7.39548,360.91742v-384.38438h492.49249v384.38438z" fill="#30008f" stroke-width="0"/><path d="M-11.25,394.5v-46h78.23123v46z" fill="#000000" stroke-width="0"/><path d="M-8.48099,355.50751v-346h15.87253v346z" fill="#000000" stroke-width="0"/><path d="M-6.54396,8v-21h500v21z" fill="#000000" stroke-width="0"/><path d="M0.61503,261.81832c0,-1.38071 1.11929,-2.5 2.5,-2.5c1.38071,0 2.5,1.11929 2.5,2.5c0,1.38071 -1.11929,2.5 -2.5,2.5c-1.38071,0 -2.5,-1.11929 -2.5,-2.5z" fill="#000000" stroke-width="0.5"/><path d="M63.17509,389.72073v-49.54955h456.45646v49.54955z" fill="#000000" stroke-width="0"/><path d="M437.04897,256.08709v-277.77778h84.08408v277.77778z" fill="#000000" stroke-width="0"/><path d="M1.61353,102.93394v-12.01201h178.67868v12.01201z" fill="#000000" stroke-width="0"/></g></g></svg>