<svg version="1.1" xmlns="http://www.w3.org/2000/svg" xmlns:xlink="http://www.w3.org/1999/xlink" width="504.70604" height="420.46396" viewBox="0,0,504.70604,420.46396"><g transform="translate(11.25,20.46396)"><g data-paper-data="{&quot;isPaintingLayer&quot;:true}" fill-rule="nonzero" stroke="none" stroke-linecap="butt" stroke-linejoin="miter" stroke-miterlimit="10" stroke-dasharray="" stroke-dashoffset="0" style="mix-blend-mode: normal"><path d="M-8.89698,357.91441v-378.37838h493.99399v378.37838z" fill="#30008f" stroke-width="0"/><path d="M-11.25,394.5v-46h78.23123v46z" fill="#000000" stroke-width="0"/><path d="M65.98123,400v-44h419.76877v44z" fill="#ff0000" stroke-width="0"/><path d="M-8.48099,355.50751v-346h15.87253v346z" fill="#000000" stroke-width="0"/><path d="M-6.54396,8v-21h500v21z" fill="#000000" stroke-width="0"/><path d="M0.61503,261.81832c0,-1.38071 1.11929,-2.5 2.5,-2.5c1.38071,0 2.5,1.11929 2.5,2.5c0,1.38071 -1.11929,2.5 -2.5,2.5c-1.38071,0 -2.5,-1.11929 -2.5,-2.5z" fill="#000000" stroke-width="0.5"/><path d="M34.64656,194.25075v-195.1952h49.54955v195.1952z" fill="#ff0000" stroke-width="0"/><path d="M198.31023,215.27177v-46.54655h117.11712v46.54655z" fill="#ff0000" stroke-width="0"/><path d="M392.00392,360.91742v-99.0991h60.06006v99.0991z" fill="#000000" stroke-width="0"/><path d="M120.23215,399.95646v-99.0991h30.03003v99.0991z" fill="#000000" stroke-width="0"/><path d="M159.27119,392.44895v-324.32432h42.04204v324.32432z" fill="#000000" stroke-width="0"/><path d="M280.89281,167.22372v-69.06907h76.57658v69.06907z" fill="#000000" stroke-width="0"/></g></g></svg>