<svg version="1.1" xmlns="http://www.w3.org/2000/svg" xmlns:xlink="http://www.w3.org/1999/xlink" width="238" height="77" viewBox="0,0,238,77"><g transform="translate(-106.5,-116.51652)"><g data-paper-data="{&quot;isPaintingLayer&quot;:true}" fill-rule="nonzero" stroke="none" stroke-width="0" stroke-linecap="butt" stroke-linejoin="miter" stroke-miterlimit="10" stroke-dasharray="" stroke-dashoffset="0" style="mix-blend-mode: normal"><path d="M186.5,155.01652c0,21.26296 -17.90861,38.5 -40,38.5c-22.09139,0 -40,-17.23704 -40,-38.5c0,-21.26296 17.90861,-38.5 40,-38.5c22.09139,0 40,17.23704 40,38.5z" fill="#b6c232"/><path d="M158.5,158.01652c0,6.35127 -5.59644,11.5 -12.5,11.5c-6.90356,0 -12.5,-5.14873 -12.5,-11.5c0,-6.35127 5.59644,-11.5 12.5,-11.5c6.90356,0 12.5,5.14873 12.5,11.5z" fill="#ffffff"/><path d="M180.5,155.51652v-12h164v12z" fill="#abbb00"/><path d="M304.5,190.51652v-44h21v44z" fill="#abbb00"/><path d="M234.5,182.51652v-33h13v33z" fill="#abbb00"/></g></g></svg>